<svg width="512" height="512" viewBox="0 0 512 512" fill="none" xmlns="http://www.w3.org/2000/svg">
  <rect width="512" height="512" rx="112" fill="url(#gradient)"/>
  <path d="M256 144C184.3 144 120.7 184.9 90 245.7c-4.5 8.9-4.5 19.5 0 28.4C120.7 334.9 184.3 376 256 376s135.3-41.1 166-101.9c4.5-8.9 4.5-19.5 0-28.4C391.3 184.9 327.7 144 256 144zm0 176c-44.2 0-80-35.8-80-80s35.8-80 80-80 80 35.8 80 80-35.8 80-80 80z" fill="white"/>
  <circle cx="256" cy="240" r="40" fill="white"/>
  <defs>
    <linearGradient id="gradient" x1="0" y1="0" x2="512" y2="512" gradientUnits="userSpaceOnUse">
      <stop stop-color="#007AFF"/>
      <stop offset="1" stop-color="#00C7BE"/>
    </linearGradient>
  </defs>
</svg>